<svg id="Layer_1" data-name="Layer 1" xmlns="http://www.w3.org/2000/svg" viewBox="0 0 818.56 88.04"><defs><style>.cls-1{fill:#ee5050;}.cls-2{fill:#fff;}</style></defs><path class="cls-1" d="M72.39,98.72a25,25,0,0,0,6.07-.61,11.19,11.19,0,0,0,3.85-1.67,5.71,5.71,0,0,0,2-2.51,8.93,8.93,0,0,0,.55-3.23,7.47,7.47,0,0,0-3.56-6.3Q77.74,81.9,69.05,79q-3.8-1.35-7.58-3.07a28.06,28.06,0,0,1-6.8-4.34,20.74,20.74,0,0,1-4.9-6.36,19.79,19.79,0,0,1-1.9-9.08,22.44,22.44,0,0,1,2-9.64,20.66,20.66,0,0,1,5.68-7.3,25.91,25.91,0,0,1,8.92-4.62A39.91,39.91,0,0,1,76.29,33a47.16,47.16,0,0,1,22.85,5.35L94.12,52a47.23,47.23,0,0,0-7.19-3,31.2,31.2,0,0,0-9.52-1.28q-6.25,0-9,1.73a5.83,5.83,0,0,0-2.73,5.29,6.11,6.11,0,0,0,1,3.57A9.65,9.65,0,0,0,69.55,61a24.53,24.53,0,0,0,4.23,2.12c1.6.63,3.36,1.28,5.3,1.95q6,2.22,10.47,4.4A28.09,28.09,0,0,1,97,74.54a18.42,18.42,0,0,1,4.41,6.8,27.47,27.47,0,0,1,1.44,9.47q0,10.81-7.57,16.77t-22.85,6a63.12,63.12,0,0,1-9.25-.61,60.92,60.92,0,0,1-7.3-1.5,41.09,41.09,0,0,1-9.3-3.79l4.9-13.82a41.91,41.91,0,0,0,21,4.9Z" transform="translate(-46.54 -25.5)"/><path class="cls-2" d="M147.28,80.89q0-8-2.06-11.37c-1.38-2.22-3.74-3.34-7.08-3.34-1,0-2.12.06-3.23.17s-2.19.24-3.23.39V112H115.07V55.37c1.41-.37,3.07-.76,5-1.17s3.9-.78,6-1.11,4.29-.6,6.52-.78S137,52,139.14,52a27.79,27.79,0,0,1,10.31,1.61A23.22,23.22,0,0,1,156,57.49,31.07,31.07,0,0,1,172.69,52,29.27,29.27,0,0,1,184.22,54a17.41,17.41,0,0,1,7.19,5.51A21,21,0,0,1,195.09,68a54.61,54.61,0,0,1,1,10.93V112h-16.6V80.89q0-8-2.06-11.37c-1.38-2.22-3.74-3.34-7.08-3.34a18.31,18.31,0,0,0-7.69,2.34,25.39,25.39,0,0,1,1,5.41c.15,1.89.22,3.92.22,6.07v32h-16.6Z" transform="translate(-46.54 -25.5)"/><path class="cls-2" d="M232.2,51.8a38.26,38.26,0,0,1,12.26,1.68,19,19,0,0,1,7.86,4.79,17.75,17.75,0,0,1,4.18,7.58,37.69,37.69,0,0,1,1.22,9.92v34.54c-2.38.52-5.68,1.14-9.92,1.84a94.77,94.77,0,0,1-15.38,1.06,48.64,48.64,0,0,1-10.3-1,22.42,22.42,0,0,1-8-3.29,15,15,0,0,1-5.13-6,20.56,20.56,0,0,1-1.78-9,17,17,0,0,1,2.06-8.69,15.85,15.85,0,0,1,5.52-5.69,24.9,24.9,0,0,1,7.91-3.06,44.44,44.44,0,0,1,9.25-.95,54,54,0,0,1,5.74.28,25.92,25.92,0,0,1,4.07.73V75a9.18,9.18,0,0,0-2.57-6.8q-2.57-2.56-8.91-2.57a56.55,56.55,0,0,0-8.36.62A36,36,0,0,0,214.82,68L212.7,54.59c1-.3,2.17-.61,3.62-1s3-.63,4.74-.89,3.51-.48,5.4-.67S230.27,51.8,232.2,51.8Zm1.34,48.59c1.63,0,3.19,0,4.68-.11a31.77,31.77,0,0,0,3.57-.33V87.36c-.67-.15-1.68-.3-3-.45a33.26,33.26,0,0,0-3.68-.22,33.87,33.87,0,0,0-4.4.27A11.89,11.89,0,0,0,227.07,88a6.27,6.27,0,0,0-2.45,2.12,5.94,5.94,0,0,0-.89,3.34q0,3.92,2.62,5.41A14.52,14.52,0,0,0,233.54,100.39Z" transform="translate(-46.54 -25.5)"/><path class="cls-2" d="M296.17,113.1a41.93,41.93,0,0,1-11.76-1.56,17.36,17.36,0,0,1-7.13-4.07,13.41,13.41,0,0,1-3.57-6.35,34.42,34.42,0,0,1-.94-8.42V28.18l16.6-2.68V89.36a21.13,21.13,0,0,0,.34,4,6.87,6.87,0,0,0,1.28,3,6.76,6.76,0,0,0,2.73,2,15,15,0,0,0,4.79,1Z" transform="translate(-46.54 -25.5)"/><path class="cls-2" d="M331.39,113.1a41.93,41.93,0,0,1-11.76-1.56,17.36,17.36,0,0,1-7.13-4.07,13.41,13.41,0,0,1-3.57-6.35A34.4,34.4,0,0,1,308,92.7V28.18l16.61-2.68V89.36a22,22,0,0,0,.33,4,6.87,6.87,0,0,0,1.28,3,6.76,6.76,0,0,0,2.73,2,15,15,0,0,0,4.8,1Z" transform="translate(-46.54 -25.5)"/><path class="cls-1" d="M401.6,34.75V49.58H378.3V112H360.92V49.58H337.63V34.75Z" transform="translate(-46.54 -25.5)"/><path class="cls-2" d="M424.33,51.8a38.3,38.3,0,0,1,12.26,1.68,19,19,0,0,1,7.86,4.79,17.75,17.75,0,0,1,4.18,7.58,37.69,37.69,0,0,1,1.22,9.92v34.54c-2.38.52-5.68,1.14-9.92,1.84a94.77,94.77,0,0,1-15.38,1.06,48.73,48.73,0,0,1-10.31-1,22.37,22.37,0,0,1-8-3.29,15,15,0,0,1-5.13-6,20.56,20.56,0,0,1-1.78-9,17,17,0,0,1,2.06-8.69,15.9,15.9,0,0,1,5.51-5.69,25,25,0,0,1,7.92-3.06,44.44,44.44,0,0,1,9.25-.95,54.16,54.16,0,0,1,5.74.28,25.55,25.55,0,0,1,4.06.73V75a9.18,9.18,0,0,0-2.56-6.8q-2.57-2.56-8.91-2.57a56.45,56.45,0,0,0-8.36.62A36.32,36.32,0,0,0,406.94,68l-2.11-13.37c1-.3,2.17-.61,3.62-1s3-.63,4.74-.89,3.51-.48,5.4-.67S422.4,51.8,424.33,51.8Zm1.34,48.59c1.63,0,3.19,0,4.68-.11a31.33,31.33,0,0,0,3.56-.33V87.36a30.06,30.06,0,0,0-3-.45,33.26,33.26,0,0,0-3.68-.22,33.87,33.87,0,0,0-4.4.27A11.89,11.89,0,0,0,419.2,88a6.27,6.27,0,0,0-2.45,2.12,5.94,5.94,0,0,0-.89,3.34q0,3.92,2.62,5.41A14.49,14.49,0,0,0,425.67,100.39Z" transform="translate(-46.54 -25.5)"/><path class="cls-2" d="M481.72,100.06c3,0,5.2-.3,6.47-.89a3.46,3.46,0,0,0,1.89-3.46c0-1.33-.82-2.5-2.45-3.51a47.5,47.5,0,0,0-7.47-3.4,71.57,71.57,0,0,1-7.07-3,20.57,20.57,0,0,1-5.41-3.73,14.9,14.9,0,0,1-3.45-5.18A19.13,19.13,0,0,1,463,69.64a15.65,15.65,0,0,1,6.13-13q6.12-4.8,16.83-4.8a54.11,54.11,0,0,1,10.25,1,47.78,47.78,0,0,1,7.8,2.06l-2.89,12.93a61.74,61.74,0,0,0-6.3-1.78,34.26,34.26,0,0,0-7.64-.78q-7.8,0-7.8,4.34a4.4,4.4,0,0,0,.34,1.79,3.8,3.8,0,0,0,1.33,1.5,18,18,0,0,0,2.74,1.57c1.15.56,2.61,1.18,4.4,1.85a67.5,67.5,0,0,1,9,4,21.41,21.41,0,0,1,5.63,4.25,13,13,0,0,1,2.9,5.06,22.32,22.32,0,0,1,.84,6.45q0,8.67-6.52,13.12t-18.45,4.44A51.9,51.9,0,0,1,461.44,110l2.79-13.49a53.68,53.68,0,0,0,8.69,2.62A42.38,42.38,0,0,0,481.72,100.06Z" transform="translate(-46.54 -25.5)"/><path class="cls-2" d="M535.55,74.42l5.07-5.54c1.74-1.92,3.43-3.83,5.06-5.71s3.17-3.67,4.62-5.37S553,54.62,554,53.36h19.75q-5.91,6.8-11.54,13T549.93,79.05a76.75,76.75,0,0,1,6.91,7.2q3.55,4.19,6.91,8.66t6.13,8.92q2.77,4.47,4.68,8.15h-19.1q-1.79-2.9-4.06-6.42t-4.84-7Q544,95,541.17,91.77a45.44,45.44,0,0,0-5.62-5.48V112H518.94V28.18l16.61-2.68Z" transform="translate(-46.54 -25.5)"/><path class="cls-1" d="M584.58,112V34.75H636.3v14.6H602V65.51h30.54v14.6H602V112Z" transform="translate(-46.54 -25.5)"/><path class="cls-2" d="M701.16,82.56a38,38,0,0,1-2,12.65,27.44,27.44,0,0,1-5.8,9.81,26.09,26.09,0,0,1-9.08,6.3,30.4,30.4,0,0,1-11.87,2.22,30,30,0,0,1-11.75-2.22,26.22,26.22,0,0,1-9.09-6.3,28.85,28.85,0,0,1-5.9-9.81,36.3,36.3,0,0,1-2.12-12.65A35,35,0,0,1,645.71,70a28.69,28.69,0,0,1,6-9.7A27.12,27.12,0,0,1,660.87,54,29.51,29.51,0,0,1,672.4,51.8,29.83,29.83,0,0,1,684.05,54a26.48,26.48,0,0,1,9.08,6.24A28.31,28.31,0,0,1,699,70,35.88,35.88,0,0,1,701.16,82.56Zm-16.94,0q0-7.68-3.07-12.09a10,10,0,0,0-8.75-4.4,10.16,10.16,0,0,0-8.8,4.4q-3.12,4.41-3.12,12.09t3.12,12.21a10.07,10.07,0,0,0,8.8,4.51,9.94,9.94,0,0,0,8.75-4.51Q684.21,90.26,684.22,82.56Z" transform="translate(-46.54 -25.5)"/><path class="cls-2" d="M749.3,68.08c-1.49-.38-3.23-.77-5.24-1.17a32.19,32.19,0,0,0-6.46-.62,31.15,31.15,0,0,0-3.73.28,23,23,0,0,0-3.29.61V112H714V56.49a99.76,99.76,0,0,1,10.53-3A60.67,60.67,0,0,1,738,52.14c.9,0,2,0,3.24.17s2.52.26,3.79.44,2.52.41,3.79.67a17.94,17.94,0,0,1,3.23.95Z" transform="translate(-46.54 -25.5)"/><path class="cls-2" d="M757.1,82.68a34.72,34.72,0,0,1,2.06-12,28.67,28.67,0,0,1,6-9.8,28.26,28.26,0,0,1,9.47-6.63,31.18,31.18,0,0,1,12.7-2.46,40.89,40.89,0,0,1,8.59.84,41.9,41.9,0,0,1,7.57,2.4L800,68.3a39.87,39.87,0,0,0-5.13-1.56,26.53,26.53,0,0,0-6.24-.67q-7.35,0-11,4.57t-3.62,12q0,7.91,3.4,12.25t11.87,4.35a39.65,39.65,0,0,0,6.46-.56,27.36,27.36,0,0,0,6.36-1.78l2.34,13.6a39.44,39.44,0,0,1-7.25,2.11,47.3,47.3,0,0,1-9.58.89,36,36,0,0,1-13.82-2.39,26.1,26.1,0,0,1-9.53-6.52,25.41,25.41,0,0,1-5.46-9.75A41.44,41.44,0,0,1,757.1,82.68Z" transform="translate(-46.54 -25.5)"/><path class="cls-2" d="M810,83.12a35.79,35.79,0,0,1,2.4-13.65,29.14,29.14,0,0,1,6.29-9.75,26.24,26.24,0,0,1,9-5.91,28.06,28.06,0,0,1,10.42-2q12.48,0,19.73,7.64t7.24,22.45c0,1,0,2-.11,3.18s-.15,2.17-.22,3.07H827.09a11,11,0,0,0,4.79,8.13c2.83,2,6.61,3,11.37,3a47.68,47.68,0,0,0,9-.84,33.44,33.44,0,0,0,7.19-2.06l2.23,13.49a22.85,22.85,0,0,1-3.57,1.33,44.38,44.38,0,0,1-5,1.17q-2.73.51-5.85.84a59.29,59.29,0,0,1-6.24.33,36.91,36.91,0,0,1-13.76-2.34,26.89,26.89,0,0,1-9.7-6.4,25.41,25.41,0,0,1-5.68-9.64A38.11,38.11,0,0,1,810,83.12Zm39-6.35a17.45,17.45,0,0,0-.73-4.13,10.42,10.42,0,0,0-1.89-3.56,10.06,10.06,0,0,0-3.24-2.56,10.48,10.48,0,0,0-4.84-1,11.12,11.12,0,0,0-4.79.95A9.88,9.88,0,0,0,830.21,69a11.12,11.12,0,0,0-2.06,3.62,23.72,23.72,0,0,0-1.06,4.18Z" transform="translate(-46.54 -25.5)"/></svg>